<?xml version="1.0" standalone="no"?>
<!DOCTYPE svg PUBLIC "-//W3C//DTD SVG 20010904//EN"
 "http://www.w3.org/TR/2001/REC-SVG-20010904/DTD/svg10.dtd">
<svg version="1.0" xmlns="http://www.w3.org/2000/svg"
 width="512.000000pt" height="512.000000pt" viewBox="0 0 512.000000 512.000000"
 preserveAspectRatio="xMidYMid meet">
<metadata>
Created by potrace 1.11, written by Peter Selinger 2001-2013
</metadata>
<g transform="translate(0.000000,512.000000) scale(0.100000,-0.100000)"
fill="#000000" stroke="none">
<path d="M0 2560 l0 -2560 2560 0 2560 0 0 2560 0 2560 -2560 0 -2560 0 0
-2560z m811 441 c131 -277 240 -505 242 -507 2 -2 111 225 244 504 l241 507
216 3 216 2 0 -950 0 -950 -230 0 -230 0 0 417 c0 236 -4 413 -9 408 -4 -6
-98 -207 -207 -447 l-199 -438 -41 0 -40 0 -205 451 -204 451 -3 -421 -2 -421
-233 2 -232 3 -3 948 -2 947 222 -2 222 -3 237 -504z m2559 304 l0 -205 -395
0 -395 0 0 -170 0 -170 363 -2 362 -3 3 -202 2 -203 -365 0 -365 0 0 -170 0
-170 410 0 410 0 0 -200 0 -200 -645 0 -645 0 0 950 0 950 630 0 630 0 0 -205z
m562 -442 c4 -747 1 -717 91 -808 58 -57 105 -75 199 -75 140 0 229 66 263
196 13 49 15 158 15 696 l0 638 235 0 236 0 -4 -702 c-3 -789 0 -748 -80 -902
-117 -225 -364 -356 -672 -356 -365 0 -629 181 -721 495 -16 54 -18 125 -21
763 l-4 702 230 0 230 0 3 -647z"/>
<path d="M250 2472 l0 -772 115 0 115 0 0 523 0 523 -109 243 c-60 133 -111
245 -115 248 -3 4 -6 -341 -6 -765z"/>
<path d="M1484 3130 c-12 -25 -99 -208 -192 -408 l-170 -363 51 -125 c38 -93
53 -121 60 -109 4 9 69 144 143 301 l134 285 -2 232 -3 232 -21 -45z"/>
<path d="M2230 2560 l0 -854 43 39 c23 22 75 71 115 110 l72 69 0 631 0 630
-115 115 -115 115 0 -855z"/>
<path d="M3590 3085 l0 -335 115 0 115 0 0 335 0 335 -115 0 -115 0 0 -335z"/>
<path d="M4620 3085 l0 -335 115 0 115 0 0 335 0 335 -115 0 -115 0 0 -335z"/>
</g>
</svg>
